<svg width="1280" height="720" xmlns="http://www.w3.org/2000/svg" xmlns:xlink="http://www.w3.org/1999/xlink" overflow="hidden"><defs><clipPath id="clip0"><path d="M0 0 1280 0 1280 720 0 720Z" fill-rule="evenodd" clip-rule="evenodd"/></clipPath></defs><g clip-path="url(#clip0)"><rect x="0" y="0" width="1280" height="720" fill="#FFFFFF"/><path d="M-0.000104987 5.80819 1278.88 5.80819 1278.88 107.836-0.000104987 107.836Z" fill="#FFFFFF" fill-rule="evenodd"/><path d="M-0.000104987 107.836 134.4 107.836 134.4 209.863-0.000104987 209.863Z" fill="#8FAADC" fill-rule="evenodd"/><path d="M134.4 107.836 363.297 107.836 363.297 209.863 134.4 209.863Z" fill="#8FAADC" fill-rule="evenodd"/><path d="M363.297 107.836 592.194 107.836 592.194 209.863 363.297 209.863Z" fill="#8FAADC" fill-rule="evenodd"/><path d="M592.194 107.836 821.091 107.836 821.091 209.863 592.194 209.863Z" fill="#8FAADC" fill-rule="evenodd"/><path d="M821.091 107.836 1049.99 107.836 1049.99 209.863 821.091 209.863Z" fill="#8FAADC" fill-rule="evenodd"/><path d="M1049.99 107.836 1278.88 107.836 1278.88 209.863 1049.99 209.863Z" fill="#8FAADC" fill-rule="evenodd"/><path d="M-0.000104987 209.863 134.4 209.863 134.4 311.89-0.000104987 311.89Z" fill="#E9EBF5" fill-rule="evenodd"/><path d="M134.4 209.863 363.297 209.863 363.297 311.89 134.4 311.89Z" fill="#E9EBF5" fill-rule="evenodd"/><path d="M363.297 209.863 592.194 209.863 592.194 311.89 363.297 311.89Z" fill="#E9EBF5" fill-rule="evenodd"/><path d="M592.194 209.863 821.091 209.863 821.091 311.89 592.194 311.89Z" fill="#E9EBF5" fill-rule="evenodd"/><path d="M821.091 209.863 1049.99 209.863 1049.99 311.89 821.091 311.89Z" fill="#E9EBF5" fill-rule="evenodd"/><path d="M1049.99 209.863 1278.88 209.863 1278.88 311.89 1049.99 311.89Z" fill="#E9EBF5" fill-rule="evenodd"/><path d="M-0.000104987 311.89 134.4 311.89 134.4 413.918-0.000104987 413.918Z" fill="#CFD5EA" fill-rule="evenodd"/><path d="M134.4 311.89 363.297 311.89 363.297 413.918 134.4 413.918Z" fill="#CFD5EA" fill-rule="evenodd"/><path d="M363.297 311.89 592.194 311.89 592.194 413.918 363.297 413.918Z" fill="#CFD5EA" fill-rule="evenodd"/><path d="M592.194 311.89 821.091 311.89 821.091 413.918 592.194 413.918Z" fill="#CFD5EA" fill-rule="evenodd"/><path d="M821.091 311.89 1049.99 311.89 1049.99 413.918 821.091 413.918Z" fill="#CFD5EA" fill-rule="evenodd"/><path d="M1049.99 311.89 1278.88 311.89 1278.88 413.918 1049.99 413.918Z" fill="#CFD5EA" fill-rule="evenodd"/><path d="M-0.000104987 413.918 134.4 413.918 134.4 515.945-0.000104987 515.945Z" fill="#E9EBF5" fill-rule="evenodd"/><path d="M134.4 413.918 363.297 413.918 363.297 515.945 134.4 515.945Z" fill="#E9EBF5" fill-rule="evenodd"/><path d="M363.297 413.918 592.194 413.918 592.194 515.945 363.297 515.945Z" fill="#E9EBF5" fill-rule="evenodd"/><path d="M592.194 413.918 821.091 413.918 821.091 515.945 592.194 515.945Z" fill="#E9EBF5" fill-rule="evenodd"/><path d="M821.091 413.918 1049.99 413.918 1049.99 515.945 821.091 515.945Z" fill="#E9EBF5" fill-rule="evenodd"/><path d="M1049.99 413.918 1278.88 413.918 1278.88 515.945 1049.99 515.945Z" fill="#E9EBF5" fill-rule="evenodd"/><path d="M-0.000104987 515.945 134.4 515.945 134.4 617.973-0.000104987 617.973Z" fill="#CFD5EA" fill-rule="evenodd"/><path d="M134.4 515.945 363.297 515.945 363.297 617.973 134.4 617.973Z" fill="#CFD5EA" fill-rule="evenodd"/><path d="M363.297 515.945 592.194 515.945 592.194 617.973 363.297 617.973Z" fill="#CFD5EA" fill-rule="evenodd"/><path d="M592.194 515.945 821.091 515.945 821.091 617.973 592.194 617.973Z" fill="#CFD5EA" fill-rule="evenodd"/><path d="M821.091 515.945 1049.99 515.945 1049.99 617.973 821.091 617.973Z" fill="#CFD5EA" fill-rule="evenodd"/><path d="M1049.99 515.945 1278.88 515.945 1278.88 617.973 1049.99 617.973Z" fill="#CFD5EA" fill-rule="evenodd"/><path d="M-0.000104987 617.973 134.4 617.973 134.4 720-0.000104987 720Z" fill="#E9EBF5" fill-rule="evenodd"/><path d="M134.4 617.973 363.297 617.973 363.297 720 134.4 720Z" fill="#E9EBF5" fill-rule="evenodd"/><path d="M363.297 617.973 592.194 617.973 592.194 720 363.297 720Z" fill="#E9EBF5" fill-rule="evenodd"/><path d="M592.194 617.973 821.091 617.973 821.091 720 592.194 720Z" fill="#E9EBF5" fill-rule="evenodd"/><path d="M821.091 617.973 1049.99 617.973 1049.99 720 821.091 720Z" fill="#E9EBF5" fill-rule="evenodd"/><path d="M1049.99 617.973 1278.88 617.973 1278.88 720 1049.99 720Z" fill="#E9EBF5" fill-rule="evenodd"/><path d="M134.4 105.836 134.4 720.667" stroke="#FFFFFF" stroke-width="1.33333" stroke-linejoin="round" stroke-miterlimit="10" fill="none" fill-rule="evenodd"/><path d="M363.297 105.836 363.297 720.667" stroke="#FFFFFF" stroke-width="1.33333" stroke-linejoin="round" stroke-miterlimit="10" fill="none" fill-rule="evenodd"/><path d="M592.194 105.836 592.194 720.667" stroke="#FFFFFF" stroke-width="1.33333" stroke-linejoin="round" stroke-miterlimit="10" fill="none" fill-rule="evenodd"/><path d="M821.091 105.836 821.091 720.667" stroke="#FFFFFF" stroke-width="1.33333" stroke-linejoin="round" stroke-miterlimit="10" fill="none" fill-rule="evenodd"/><path d="M1049.99 105.836 1049.99 720.667" stroke="#FFFFFF" stroke-width="1.33333" stroke-linejoin="round" stroke-miterlimit="10" fill="none" fill-rule="evenodd"/><path d="M-0.666772 107.836 1279.55 107.836" stroke="#FFFFFF" stroke-width="4" stroke-linejoin="round" stroke-miterlimit="10" fill="none" fill-rule="evenodd"/><path d="M-0.666772 209.863 1279.55 209.863" stroke="#FFFFFF" stroke-width="1.33333" stroke-linejoin="round" stroke-miterlimit="10" fill="none" fill-rule="evenodd"/><path d="M-0.666772 311.89 1279.55 311.89" stroke="#FFFFFF" stroke-width="1.33333" stroke-linejoin="round" stroke-miterlimit="10" fill="none" fill-rule="evenodd"/><path d="M-0.666772 413.918 1279.55 413.918" stroke="#FFFFFF" stroke-width="1.33333" stroke-linejoin="round" stroke-miterlimit="10" fill="none" fill-rule="evenodd"/><path d="M-0.666772 515.945 1279.55 515.945" stroke="#FFFFFF" stroke-width="1.33333" stroke-linejoin="round" stroke-miterlimit="10" fill="none" fill-rule="evenodd"/><path d="M-0.666772 617.973 1279.55 617.973" stroke="#FFFFFF" stroke-width="1.33333" stroke-linejoin="round" stroke-miterlimit="10" fill="none" fill-rule="evenodd"/><path d="M-0.000104987 5.14152-0.000104987 720.667" stroke="#FFFFFF" stroke-width="1.33333" stroke-linejoin="round" stroke-miterlimit="10" fill="none" fill-rule="evenodd"/><path d="M1278.88 5.14152 1278.88 720.667" stroke="#FFFFFF" stroke-width="1.33333" stroke-linejoin="round" stroke-miterlimit="10" fill="none" fill-rule="evenodd"/><path d="M-0.666772 5.80819 1279.55 5.80819" stroke="#FFFFFF" stroke-width="1.33333" stroke-linejoin="round" stroke-miterlimit="10" fill="none" fill-rule="evenodd"/><path d="M-0.666772 720 1279.55 720" stroke="#FFFFFF" stroke-width="1.33333" stroke-linejoin="round" stroke-miterlimit="10" fill="none" fill-rule="evenodd"/><text font-family="Arial,Arial_MSFontService,sans-serif" font-weight="700" font-size="32" transform="translate(257.409 69)">Top 5 State Average ACT Scores by Subject (2018)<tspan font-size="21" x="-216.209" y="98">Rank</tspan><tspan font-size="21" x="-63.644" y="98">Composite</tspan><tspan font-size="21" x="195.42" y="98">Math</tspan><tspan font-size="21" x="408.983" y="98">Science</tspan><tspan font-size="21" x="636.13" y="98">Reading</tspan><tspan font-size="21" x="868.527" y="98">English</tspan><tspan font-size="21" x="-205.626" y="200">1st</tspan><tspan font-weight="400" font-size="21" x="-64.8107" y="200">Connecticut</tspan><tspan font-weight="400" font-size="21" x="149.17" y="200">Massachusetts</tspan><tspan font-weight="400" font-size="21" x="392.983" y="200">Connecticut</tspan><tspan font-weight="400" font-size="21" x="621.88" y="200">Connecticut</tspan><tspan font-weight="400" font-size="21" x="850.777" y="200">Connecticut</tspan><tspan font-size="21" x="-209.126" y="302">2nd</tspan><tspan font-weight="400" font-size="21" x="-79.7274" y="302">Massachusetts</tspan><tspan font-weight="400" font-size="21" x="164.086" y="302">Connecticut</tspan><tspan font-weight="400" font-size="21" x="378.067" y="302">Massachusetts</tspan><tspan font-weight="400" font-size="21" x="606.964" y="302">Massachusetts</tspan><tspan font-weight="400" font-size="21" x="835.861" y="302">Massachusetts</tspan><tspan font-size="21" x="-206.793" y="404">3rd</tspan><tspan font-weight="400" font-size="21" x="-84.3107" y="404">New Hampshire</tspan><tspan font-weight="400" font-size="21" x="144.586" y="404">New Hampshire</tspan><tspan font-weight="400" font-size="21" x="373.483" y="404">New Hampshire</tspan><tspan font-weight="400" font-size="21" x="602.38" y="404">New Hampshire</tspan><tspan font-weight="400" font-size="21" x="831.277" y="404">New Hampshire</tspan><tspan font-size="21" x="-206.209" y="506">4th</tspan><tspan font-weight="400" font-size="21" x="-53.5541" y="506">New York</tspan><tspan font-weight="400" font-size="21" x="175.343" y="506">New York</tspan><tspan font-weight="400" font-size="21" x="404.24" y="506">New York</tspan><tspan font-weight="400" font-size="21" x="615.38" y="506">Rhode Island</tspan><tspan font-weight="400" font-size="21" x="864.444" y="506">Michigan</tspan><tspan font-size="21" x="-206.209" y="608">5th</tspan><tspan font-weight="400" font-size="21" x="-51.144" y="608">Michigan</tspan><tspan font-weight="400" font-size="21" x="177.753" y="608">Michigan</tspan><tspan font-weight="400" font-size="21" x="406.65" y="608">Michigan</tspan><tspan font-weight="400" font-size="21" x="633.137" y="608">New York</tspan><tspan font-weight="400" font-size="21" x="844.277" y="608">Rhode Island</tspan></text></g></svg>